<svg width="525" height="239" viewBox="0 0 525 239" fill="none" xmlns="http://www.w3.org/2000/svg">
<path d="M218.683 97.1766L129.109 23.3464V153.329L218.683 223V97.1766Z" fill="#03624C" stroke="#03624C" stroke-width="10" stroke-linecap="round" stroke-linejoin="round"/>
<path d="M79.4653 216.525L5 159.047V35.8806C5.71947 26.301 12.9861 6.73124 36.297 5.08902C59.6079 3.4468 66.8746 24.9325 67.5941 35.8806M67.5941 35.8806V152.889L139.901 211.393M67.5941 35.8806C69.7525 25.6168 79.2495 5.08902 99.9703 5.08902C120.691 5.08902 128.749 25.6168 130.188 35.8806" stroke="#03624C" stroke-width="10" stroke-linecap="round" stroke-linejoin="round"/>
<mask id="path-3-outside-1_961_47" maskUnits="userSpaceOnUse" x="237.683" y="94" width="285" height="131" fill="black">
<rect fill="white" x="237.683" y="94" width="285" height="131"/>
<path d="M239.137 142V96.5H248.887V133.225H278.592V142H239.137ZM310.1 142.65C305.94 142.65 302.127 142.065 298.66 140.895C295.237 139.682 292.247 138.013 289.69 135.89C287.134 133.723 285.162 131.21 283.775 128.35C282.432 125.49 281.76 122.413 281.76 119.12C281.76 115.827 282.454 112.75 283.84 109.89C285.227 107.03 287.177 104.538 289.69 102.415C292.247 100.248 295.237 98.58 298.66 97.41C302.127 96.1967 305.94 95.59 310.1 95.59C314.26 95.59 318.052 96.1967 321.475 97.41C324.942 98.58 327.932 100.248 330.445 102.415C333.002 104.538 334.974 107.03 336.36 109.89C337.747 112.75 338.44 115.827 338.44 119.12C338.44 122.413 337.747 125.49 336.36 128.35C334.974 131.21 333.002 133.723 330.445 135.89C327.932 138.013 324.942 139.682 321.475 140.895C318.052 142.065 314.26 142.65 310.1 142.65ZM310.1 133.42C312.787 133.42 315.257 133.073 317.51 132.38C319.764 131.643 321.714 130.625 323.36 129.325C325.007 128.025 326.285 126.508 327.195 124.775C328.105 123.042 328.56 121.157 328.56 119.12C328.56 117.083 328.105 115.198 327.195 113.465C326.285 111.732 325.007 110.237 323.36 108.98C321.714 107.68 319.764 106.662 317.51 105.925C315.257 105.188 312.787 104.82 310.1 104.82C307.414 104.82 304.944 105.188 302.69 105.925C300.437 106.662 298.465 107.68 296.775 108.98C295.129 110.237 293.872 111.732 293.005 113.465C292.139 115.198 291.705 117.083 291.705 119.12C291.705 121.157 292.139 123.042 293.005 124.775C293.872 126.508 295.129 128.025 296.775 129.325C298.465 130.625 300.437 131.643 302.69 132.38C304.944 133.073 307.414 133.42 310.1 133.42ZM358.967 142L338.037 96.5H348.307L359.097 120.615C359.357 121.222 359.747 122.088 360.267 123.215C360.787 124.298 361.351 125.555 361.957 126.985C362.607 128.372 363.214 129.802 363.777 131.275C364.384 132.705 364.882 134.07 365.272 135.37L362.997 135.435C363.517 133.832 364.146 132.142 364.882 130.365C365.662 128.588 366.421 126.877 367.157 125.23C367.894 123.54 368.522 122.045 369.042 120.745L379.182 96.5H389.517L369.107 142H358.967ZM391.935 142L389.595 135.695L403.895 123.67C405.238 122.457 406.582 121.243 407.925 120.03C409.268 118.773 410.503 117.538 411.63 116.325C412.757 115.112 413.667 113.92 414.36 112.75C415.053 111.58 415.4 110.475 415.4 109.435C415.4 108.352 415.14 107.42 414.62 106.64C414.1 105.817 413.32 105.188 412.28 104.755C411.283 104.322 410.048 104.105 408.575 104.105C407.102 104.105 405.628 104.365 404.155 104.885C402.725 105.362 401.338 106.163 399.995 107.29C398.652 108.373 397.373 109.847 396.16 111.71L389.01 107.225C390.483 105.058 392.217 103.108 394.21 101.375C396.247 99.5983 398.565 98.19 401.165 97.15C403.808 96.11 406.647 95.59 409.68 95.59C412.887 95.59 415.66 96.1533 418 97.28C420.34 98.3633 422.138 99.8583 423.395 101.765C424.695 103.628 425.345 105.795 425.345 108.265C425.345 109.825 425.063 111.342 424.5 112.815C423.937 114.245 423.157 115.632 422.16 116.975C421.163 118.318 420.037 119.618 418.78 120.875C417.567 122.132 416.288 123.345 414.945 124.515C413.645 125.642 412.367 126.747 411.11 127.83L399.085 138.1L398.76 133.225H427.23V142H391.935ZM433.04 142V96.5H442.79V133.225H472.495V142H433.04ZM488.56 142V121.655L489.86 126.66L465.42 96.5H477.965L495.71 119.445H491.42L508.71 96.5H520.215L498.05 124.905L498.375 121.135V142H488.56ZM239.921 223V177.5H265.531C269.474 177.5 272.767 177.955 275.411 178.865C278.097 179.732 280.112 181.01 281.456 182.7C282.842 184.39 283.536 186.405 283.536 188.745C283.536 191.258 282.756 193.403 281.196 195.18C279.679 196.913 277.382 198.148 274.306 198.885L274.696 197.65C276.602 198.083 278.422 198.777 280.156 199.73C281.889 200.683 283.276 201.962 284.316 203.565C285.399 205.125 285.941 207.053 285.941 209.35C285.941 212.08 285.377 214.333 284.251 216.11C283.124 217.887 281.629 219.273 279.766 220.27C277.902 221.267 275.866 221.982 273.656 222.415C271.489 222.805 269.344 223 267.221 223H239.921ZM249.281 214.55H267.481C269.171 214.55 270.666 214.355 271.966 213.965C273.309 213.575 274.349 212.968 275.086 212.145C275.866 211.278 276.256 210.217 276.256 208.96C276.256 207.487 275.757 206.36 274.761 205.58C273.807 204.757 272.616 204.193 271.186 203.89C269.799 203.543 268.456 203.37 267.156 203.37H249.281V214.55ZM249.281 195.57H266.051C267.481 195.57 268.781 195.375 269.951 194.985C271.164 194.595 272.096 194.032 272.746 193.295C273.439 192.558 273.786 191.67 273.786 190.63C273.786 188.897 272.984 187.683 271.381 186.99C269.821 186.297 267.871 185.95 265.531 185.95H249.281V195.57ZM318.818 223.65C314.658 223.65 310.845 223.065 307.378 221.895C303.955 220.682 300.965 219.013 298.408 216.89C295.852 214.723 293.88 212.21 292.493 209.35C291.15 206.49 290.478 203.413 290.478 200.12C290.478 196.827 291.172 193.75 292.558 190.89C293.945 188.03 295.895 185.538 298.408 183.415C300.965 181.248 303.955 179.58 307.378 178.41C310.845 177.197 314.658 176.59 318.818 176.59C322.978 176.59 326.77 177.197 330.193 178.41C333.66 179.58 336.65 181.248 339.163 183.415C341.72 185.538 343.692 188.03 345.078 190.89C346.465 193.75 347.158 196.827 347.158 200.12C347.158 203.413 346.465 206.49 345.078 209.35C343.692 212.21 341.72 214.723 339.163 216.89C336.65 219.013 333.66 220.682 330.193 221.895C326.77 223.065 322.978 223.65 318.818 223.65ZM318.818 214.42C321.505 214.42 323.975 214.073 326.228 213.38C328.482 212.643 330.432 211.625 332.078 210.325C333.725 209.025 335.003 207.508 335.913 205.775C336.823 204.042 337.278 202.157 337.278 200.12C337.278 198.083 336.823 196.198 335.913 194.465C335.003 192.732 333.725 191.237 332.078 189.98C330.432 188.68 328.482 187.662 326.228 186.925C323.975 186.188 321.505 185.82 318.818 185.82C316.132 185.82 313.662 186.188 311.408 186.925C309.155 187.662 307.183 188.68 305.493 189.98C303.847 191.237 302.59 192.732 301.723 194.465C300.857 196.198 300.423 198.083 300.423 200.12C300.423 202.157 300.857 204.042 301.723 205.775C302.59 207.508 303.847 209.025 305.493 210.325C307.183 211.625 309.155 212.643 311.408 213.38C313.662 214.073 316.132 214.42 318.818 214.42ZM380.053 223.65C375.893 223.65 372.08 223.065 368.613 221.895C365.19 220.682 362.2 219.013 359.643 216.89C357.086 214.723 355.115 212.21 353.728 209.35C352.385 206.49 351.713 203.413 351.713 200.12C351.713 196.827 352.406 193.75 353.793 190.89C355.18 188.03 357.13 185.538 359.643 183.415C362.2 181.248 365.19 179.58 368.613 178.41C372.08 177.197 375.893 176.59 380.053 176.59C384.213 176.59 388.005 177.197 391.428 178.41C394.895 179.58 397.885 181.248 400.398 183.415C402.955 185.538 404.926 188.03 406.313 190.89C407.7 193.75 408.393 196.827 408.393 200.12C408.393 203.413 407.7 206.49 406.313 209.35C404.926 212.21 402.955 214.723 400.398 216.89C397.885 219.013 394.895 220.682 391.428 221.895C388.005 223.065 384.213 223.65 380.053 223.65ZM380.053 214.42C382.74 214.42 385.21 214.073 387.463 213.38C389.716 212.643 391.666 211.625 393.313 210.325C394.96 209.025 396.238 207.508 397.148 205.775C398.058 204.042 398.513 202.157 398.513 200.12C398.513 198.083 398.058 196.198 397.148 194.465C396.238 192.732 394.96 191.237 393.313 189.98C391.666 188.68 389.716 187.662 387.463 186.925C385.21 186.188 382.74 185.82 380.053 185.82C377.366 185.82 374.896 186.188 372.643 186.925C370.39 187.662 368.418 188.68 366.728 189.98C365.081 191.237 363.825 192.732 362.958 194.465C362.091 196.198 361.658 198.083 361.658 200.12C361.658 202.157 362.091 204.042 362.958 205.775C363.825 207.508 365.081 209.025 366.728 210.325C368.418 211.625 370.39 212.643 372.643 213.38C374.896 214.073 377.366 214.42 380.053 214.42ZM422.697 212.015L421.007 203.045L453.702 177.5H466.702L422.697 212.015ZM416.197 223V177.5H425.947V223H416.197ZM454.222 223L434.657 199.015L440.507 192.125L466.377 223H454.222ZM493.899 223.65C490.389 223.65 487.139 223.325 484.149 222.675C481.202 222.025 478.516 221.093 476.089 219.88C473.662 218.667 471.452 217.237 469.459 215.59L474.269 207.725C477.606 210.368 480.964 212.297 484.344 213.51C487.724 214.723 491.104 215.33 494.484 215.33C496.217 215.33 497.929 215.157 499.619 214.81C501.352 214.42 502.782 213.813 503.909 212.99C505.079 212.167 505.664 211.04 505.664 209.61C505.664 208.743 505.382 208.05 504.819 207.53C504.256 206.967 503.476 206.512 502.479 206.165C501.526 205.818 500.421 205.537 499.164 205.32C497.951 205.103 496.694 204.93 495.394 204.8C494.094 204.67 492.837 204.562 491.624 204.475C488.634 204.128 485.926 203.608 483.499 202.915C481.072 202.222 478.992 201.333 477.259 200.25C475.526 199.167 474.204 197.845 473.294 196.285C472.384 194.682 471.929 192.862 471.929 190.825C471.929 188.572 472.471 186.557 473.554 184.78C474.681 183.003 476.241 181.508 478.234 180.295C480.227 179.082 482.524 178.172 485.124 177.565C487.767 176.915 490.606 176.59 493.639 176.59C496.802 176.59 499.684 176.893 502.284 177.5C504.884 178.063 507.181 178.887 509.174 179.97C511.167 181.01 512.836 182.223 514.179 183.61L509.044 190.435C507.744 189.265 506.227 188.29 504.494 187.51C502.804 186.687 501.006 186.058 499.099 185.625C497.192 185.192 495.242 184.975 493.249 184.975C491.212 184.975 489.371 185.17 487.724 185.56C486.077 185.907 484.777 186.448 483.824 187.185C482.871 187.922 482.394 188.853 482.394 189.98C482.394 190.977 482.741 191.8 483.434 192.45C484.171 193.1 485.146 193.62 486.359 194.01C487.616 194.4 489.002 194.725 490.519 194.985C492.079 195.202 493.661 195.418 495.264 195.635C497.864 195.895 500.399 196.242 502.869 196.675C505.382 197.108 507.614 197.758 509.564 198.625C511.557 199.492 513.139 200.727 514.309 202.33C515.522 203.89 516.129 205.97 516.129 208.57C516.129 211.69 515.176 214.377 513.269 216.63C511.362 218.883 508.741 220.617 505.404 221.83C502.111 223.043 498.276 223.65 493.899 223.65Z"/>
</mask>
<path d="M239.137 142V96.5H248.887V133.225H278.592V142H239.137ZM310.1 142.65C305.94 142.65 302.127 142.065 298.66 140.895C295.237 139.682 292.247 138.013 289.69 135.89C287.134 133.723 285.162 131.21 283.775 128.35C282.432 125.49 281.76 122.413 281.76 119.12C281.76 115.827 282.454 112.75 283.84 109.89C285.227 107.03 287.177 104.538 289.69 102.415C292.247 100.248 295.237 98.58 298.66 97.41C302.127 96.1967 305.94 95.59 310.1 95.59C314.26 95.59 318.052 96.1967 321.475 97.41C324.942 98.58 327.932 100.248 330.445 102.415C333.002 104.538 334.974 107.03 336.36 109.89C337.747 112.75 338.44 115.827 338.44 119.12C338.44 122.413 337.747 125.49 336.36 128.35C334.974 131.21 333.002 133.723 330.445 135.89C327.932 138.013 324.942 139.682 321.475 140.895C318.052 142.065 314.26 142.65 310.1 142.65ZM310.1 133.42C312.787 133.42 315.257 133.073 317.51 132.38C319.764 131.643 321.714 130.625 323.36 129.325C325.007 128.025 326.285 126.508 327.195 124.775C328.105 123.042 328.56 121.157 328.56 119.12C328.56 117.083 328.105 115.198 327.195 113.465C326.285 111.732 325.007 110.237 323.36 108.98C321.714 107.68 319.764 106.662 317.51 105.925C315.257 105.188 312.787 104.82 310.1 104.82C307.414 104.82 304.944 105.188 302.69 105.925C300.437 106.662 298.465 107.68 296.775 108.98C295.129 110.237 293.872 111.732 293.005 113.465C292.139 115.198 291.705 117.083 291.705 119.12C291.705 121.157 292.139 123.042 293.005 124.775C293.872 126.508 295.129 128.025 296.775 129.325C298.465 130.625 300.437 131.643 302.69 132.38C304.944 133.073 307.414 133.42 310.1 133.42ZM358.967 142L338.037 96.5H348.307L359.097 120.615C359.357 121.222 359.747 122.088 360.267 123.215C360.787 124.298 361.351 125.555 361.957 126.985C362.607 128.372 363.214 129.802 363.777 131.275C364.384 132.705 364.882 134.07 365.272 135.37L362.997 135.435C363.517 133.832 364.146 132.142 364.882 130.365C365.662 128.588 366.421 126.877 367.157 125.23C367.894 123.54 368.522 122.045 369.042 120.745L379.182 96.5H389.517L369.107 142H358.967ZM391.935 142L389.595 135.695L403.895 123.67C405.238 122.457 406.582 121.243 407.925 120.03C409.268 118.773 410.503 117.538 411.63 116.325C412.757 115.112 413.667 113.92 414.36 112.75C415.053 111.58 415.4 110.475 415.4 109.435C415.4 108.352 415.14 107.42 414.62 106.64C414.1 105.817 413.32 105.188 412.28 104.755C411.283 104.322 410.048 104.105 408.575 104.105C407.102 104.105 405.628 104.365 404.155 104.885C402.725 105.362 401.338 106.163 399.995 107.29C398.652 108.373 397.373 109.847 396.16 111.71L389.01 107.225C390.483 105.058 392.217 103.108 394.21 101.375C396.247 99.5983 398.565 98.19 401.165 97.15C403.808 96.11 406.647 95.59 409.68 95.59C412.887 95.59 415.66 96.1533 418 97.28C420.34 98.3633 422.138 99.8583 423.395 101.765C424.695 103.628 425.345 105.795 425.345 108.265C425.345 109.825 425.063 111.342 424.5 112.815C423.937 114.245 423.157 115.632 422.16 116.975C421.163 118.318 420.037 119.618 418.78 120.875C417.567 122.132 416.288 123.345 414.945 124.515C413.645 125.642 412.367 126.747 411.11 127.83L399.085 138.1L398.76 133.225H427.23V142H391.935ZM433.04 142V96.5H442.79V133.225H472.495V142H433.04ZM488.56 142V121.655L489.86 126.66L465.42 96.5H477.965L495.71 119.445H491.42L508.71 96.5H520.215L498.05 124.905L498.375 121.135V142H488.56ZM239.921 223V177.5H265.531C269.474 177.5 272.767 177.955 275.411 178.865C278.097 179.732 280.112 181.01 281.456 182.7C282.842 184.39 283.536 186.405 283.536 188.745C283.536 191.258 282.756 193.403 281.196 195.18C279.679 196.913 277.382 198.148 274.306 198.885L274.696 197.65C276.602 198.083 278.422 198.777 280.156 199.73C281.889 200.683 283.276 201.962 284.316 203.565C285.399 205.125 285.941 207.053 285.941 209.35C285.941 212.08 285.377 214.333 284.251 216.11C283.124 217.887 281.629 219.273 279.766 220.27C277.902 221.267 275.866 221.982 273.656 222.415C271.489 222.805 269.344 223 267.221 223H239.921ZM249.281 214.55H267.481C269.171 214.55 270.666 214.355 271.966 213.965C273.309 213.575 274.349 212.968 275.086 212.145C275.866 211.278 276.256 210.217 276.256 208.96C276.256 207.487 275.757 206.36 274.761 205.58C273.807 204.757 272.616 204.193 271.186 203.89C269.799 203.543 268.456 203.37 267.156 203.37H249.281V214.55ZM249.281 195.57H266.051C267.481 195.57 268.781 195.375 269.951 194.985C271.164 194.595 272.096 194.032 272.746 193.295C273.439 192.558 273.786 191.67 273.786 190.63C273.786 188.897 272.984 187.683 271.381 186.99C269.821 186.297 267.871 185.95 265.531 185.95H249.281V195.57ZM318.818 223.65C314.658 223.65 310.845 223.065 307.378 221.895C303.955 220.682 300.965 219.013 298.408 216.89C295.852 214.723 293.88 212.21 292.493 209.35C291.15 206.49 290.478 203.413 290.478 200.12C290.478 196.827 291.172 193.75 292.558 190.89C293.945 188.03 295.895 185.538 298.408 183.415C300.965 181.248 303.955 179.58 307.378 178.41C310.845 177.197 314.658 176.59 318.818 176.59C322.978 176.59 326.77 177.197 330.193 178.41C333.66 179.58 336.65 181.248 339.163 183.415C341.72 185.538 343.692 188.03 345.078 190.89C346.465 193.75 347.158 196.827 347.158 200.12C347.158 203.413 346.465 206.49 345.078 209.35C343.692 212.21 341.72 214.723 339.163 216.89C336.65 219.013 333.66 220.682 330.193 221.895C326.77 223.065 322.978 223.65 318.818 223.65ZM318.818 214.42C321.505 214.42 323.975 214.073 326.228 213.38C328.482 212.643 330.432 211.625 332.078 210.325C333.725 209.025 335.003 207.508 335.913 205.775C336.823 204.042 337.278 202.157 337.278 200.12C337.278 198.083 336.823 196.198 335.913 194.465C335.003 192.732 333.725 191.237 332.078 189.98C330.432 188.68 328.482 187.662 326.228 186.925C323.975 186.188 321.505 185.82 318.818 185.82C316.132 185.82 313.662 186.188 311.408 186.925C309.155 187.662 307.183 188.68 305.493 189.98C303.847 191.237 302.59 192.732 301.723 194.465C300.857 196.198 300.423 198.083 300.423 200.12C300.423 202.157 300.857 204.042 301.723 205.775C302.59 207.508 303.847 209.025 305.493 210.325C307.183 211.625 309.155 212.643 311.408 213.38C313.662 214.073 316.132 214.42 318.818 214.42ZM380.053 223.65C375.893 223.65 372.08 223.065 368.613 221.895C365.19 220.682 362.2 219.013 359.643 216.89C357.086 214.723 355.115 212.21 353.728 209.35C352.385 206.49 351.713 203.413 351.713 200.12C351.713 196.827 352.406 193.75 353.793 190.89C355.18 188.03 357.13 185.538 359.643 183.415C362.2 181.248 365.19 179.58 368.613 178.41C372.08 177.197 375.893 176.59 380.053 176.59C384.213 176.59 388.005 177.197 391.428 178.41C394.895 179.58 397.885 181.248 400.398 183.415C402.955 185.538 404.926 188.03 406.313 190.89C407.7 193.75 408.393 196.827 408.393 200.12C408.393 203.413 407.7 206.49 406.313 209.35C404.926 212.21 402.955 214.723 400.398 216.89C397.885 219.013 394.895 220.682 391.428 221.895C388.005 223.065 384.213 223.65 380.053 223.65ZM380.053 214.42C382.74 214.42 385.21 214.073 387.463 213.38C389.716 212.643 391.666 211.625 393.313 210.325C394.96 209.025 396.238 207.508 397.148 205.775C398.058 204.042 398.513 202.157 398.513 200.12C398.513 198.083 398.058 196.198 397.148 194.465C396.238 192.732 394.96 191.237 393.313 189.98C391.666 188.68 389.716 187.662 387.463 186.925C385.21 186.188 382.74 185.82 380.053 185.82C377.366 185.82 374.896 186.188 372.643 186.925C370.39 187.662 368.418 188.68 366.728 189.98C365.081 191.237 363.825 192.732 362.958 194.465C362.091 196.198 361.658 198.083 361.658 200.12C361.658 202.157 362.091 204.042 362.958 205.775C363.825 207.508 365.081 209.025 366.728 210.325C368.418 211.625 370.39 212.643 372.643 213.38C374.896 214.073 377.366 214.42 380.053 214.42ZM422.697 212.015L421.007 203.045L453.702 177.5H466.702L422.697 212.015ZM416.197 223V177.5H425.947V223H416.197ZM454.222 223L434.657 199.015L440.507 192.125L466.377 223H454.222ZM493.899 223.65C490.389 223.65 487.139 223.325 484.149 222.675C481.202 222.025 478.516 221.093 476.089 219.88C473.662 218.667 471.452 217.237 469.459 215.59L474.269 207.725C477.606 210.368 480.964 212.297 484.344 213.51C487.724 214.723 491.104 215.33 494.484 215.33C496.217 215.33 497.929 215.157 499.619 214.81C501.352 214.42 502.782 213.813 503.909 212.99C505.079 212.167 505.664 211.04 505.664 209.61C505.664 208.743 505.382 208.05 504.819 207.53C504.256 206.967 503.476 206.512 502.479 206.165C501.526 205.818 500.421 205.537 499.164 205.32C497.951 205.103 496.694 204.93 495.394 204.8C494.094 204.67 492.837 204.562 491.624 204.475C488.634 204.128 485.926 203.608 483.499 202.915C481.072 202.222 478.992 201.333 477.259 200.25C475.526 199.167 474.204 197.845 473.294 196.285C472.384 194.682 471.929 192.862 471.929 190.825C471.929 188.572 472.471 186.557 473.554 184.78C474.681 183.003 476.241 181.508 478.234 180.295C480.227 179.082 482.524 178.172 485.124 177.565C487.767 176.915 490.606 176.59 493.639 176.59C496.802 176.59 499.684 176.893 502.284 177.5C504.884 178.063 507.181 178.887 509.174 179.97C511.167 181.01 512.836 182.223 514.179 183.61L509.044 190.435C507.744 189.265 506.227 188.29 504.494 187.51C502.804 186.687 501.006 186.058 499.099 185.625C497.192 185.192 495.242 184.975 493.249 184.975C491.212 184.975 489.371 185.17 487.724 185.56C486.077 185.907 484.777 186.448 483.824 187.185C482.871 187.922 482.394 188.853 482.394 189.98C482.394 190.977 482.741 191.8 483.434 192.45C484.171 193.1 485.146 193.62 486.359 194.01C487.616 194.4 489.002 194.725 490.519 194.985C492.079 195.202 493.661 195.418 495.264 195.635C497.864 195.895 500.399 196.242 502.869 196.675C505.382 197.108 507.614 197.758 509.564 198.625C511.557 199.492 513.139 200.727 514.309 202.33C515.522 203.89 516.129 205.97 516.129 208.57C516.129 211.69 515.176 214.377 513.269 216.63C511.362 218.883 508.741 220.617 505.404 221.83C502.111 223.043 498.276 223.65 493.899 223.65Z" fill="#03624C"/>
<path d="M239.137 142H238.137V143H239.137V142ZM239.137 96.5V95.5H238.137V96.5H239.137ZM248.887 96.5H249.887V95.5H248.887V96.5ZM248.887 133.225H247.887V134.225H248.887V133.225ZM278.592 133.225H279.592V132.225H278.592V133.225ZM278.592 142V143H279.592V142H278.592ZM239.137 142H240.137V96.5H239.137H238.137V142H239.137ZM239.137 96.5V97.5H248.887V96.5V95.5H239.137V96.5ZM248.887 96.5H247.887V133.225H248.887H249.887V96.5H248.887ZM248.887 133.225V134.225H278.592V133.225V132.225H248.887V133.225ZM278.592 133.225H277.592V142H278.592H279.592V133.225H278.592ZM278.592 142V141H239.137V142V143H278.592V142ZM298.66 140.895L298.326 141.838L298.334 141.84L298.341 141.842L298.66 140.895ZM289.69 135.89L289.044 136.653L289.052 136.659L289.69 135.89ZM283.775 128.35L282.87 128.775L282.876 128.786L283.775 128.35ZM283.84 109.89L284.74 110.326L283.84 109.89ZM289.69 102.415L290.336 103.179L290.337 103.178L289.69 102.415ZM298.66 97.41L298.984 98.3563L298.991 98.3539L298.66 97.41ZM321.475 97.41L321.141 98.3525L321.149 98.3551L321.156 98.3575L321.475 97.41ZM330.445 102.415L329.793 103.172L329.799 103.178L329.807 103.184L330.445 102.415ZM336.36 109.89L335.461 110.326L336.36 109.89ZM336.36 128.35L337.26 128.786L337.26 128.786L336.36 128.35ZM330.445 135.89L331.091 136.654L331.092 136.653L330.445 135.89ZM321.475 140.895L321.799 141.841L321.806 141.839L321.475 140.895ZM317.51 132.38L317.805 133.336L317.813 133.333L317.821 133.33L317.51 132.38ZM327.195 124.775L328.081 125.24L328.081 125.24L327.195 124.775ZM327.195 113.465L328.081 113L328.081 113L327.195 113.465ZM323.36 108.98L322.741 109.765L322.747 109.77L322.754 109.775L323.36 108.98ZM317.51 105.925L317.2 106.875L317.2 106.875L317.51 105.925ZM302.69 105.925L303.001 106.875L303.001 106.875L302.69 105.925ZM296.775 108.98L297.382 109.775L297.385 109.773L296.775 108.98ZM293.005 113.465L292.111 113.018L292.111 113.018L293.005 113.465ZM293.005 124.775L292.111 125.222L292.111 125.222L293.005 124.775ZM296.775 129.325L296.156 130.11L296.166 130.118L296.775 129.325ZM302.69 132.38L302.38 133.33L302.388 133.333L302.396 133.336L302.69 132.38ZM310.1 142.65V141.65C306.035 141.65 302.331 141.078 298.98 139.948L298.66 140.895L298.341 141.842C301.923 143.052 305.846 143.65 310.1 143.65V142.65ZM298.66 140.895L298.995 139.952C295.672 138.775 292.787 137.162 290.329 135.121L289.69 135.89L289.052 136.659C291.707 138.865 294.802 140.589 298.326 141.838L298.66 140.895ZM289.69 135.89L290.337 135.127C287.881 133.045 285.998 130.642 284.675 127.914L283.775 128.35L282.876 128.786C284.326 131.778 286.387 134.401 289.044 136.653L289.69 135.89ZM283.775 128.35L284.681 127.925C283.402 125.204 282.76 122.273 282.76 119.12H281.76H280.76C280.76 122.554 281.462 125.776 282.87 128.775L283.775 128.35ZM281.76 119.12H282.76C282.76 115.972 283.422 113.045 284.74 110.326L283.84 109.89L282.941 109.454C281.486 112.455 280.76 115.681 280.76 119.12H281.76ZM283.84 109.89L284.74 110.326C286.064 107.597 287.925 105.215 290.336 103.179L289.69 102.415L289.045 101.651C286.429 103.861 284.39 106.463 282.941 109.454L283.84 109.89ZM289.69 102.415L290.337 103.178C292.791 101.098 295.669 99.4891 298.984 98.3563L298.66 97.41L298.337 96.4637C294.805 97.6709 291.703 99.3984 289.044 101.652L289.69 102.415ZM298.66 97.41L298.991 98.3539C302.338 97.1823 306.038 96.59 310.1 96.59V95.59V94.59C305.843 94.59 301.916 95.2111 298.33 96.4661L298.66 97.41ZM310.1 95.59V96.59C314.163 96.59 317.84 97.1823 321.141 98.3525L321.475 97.41L321.81 96.4674C318.265 95.211 314.358 94.59 310.1 94.59V95.59ZM321.475 97.41L321.156 98.3575C324.513 99.4905 327.386 101.098 329.793 103.172L330.445 102.415L331.098 101.658C328.478 99.3984 325.372 97.6695 321.795 96.4625L321.475 97.41ZM330.445 102.415L329.807 103.184C332.259 105.221 334.139 107.6 335.461 110.326L336.36 109.89L337.26 109.454C335.809 106.46 333.746 103.856 331.084 101.646L330.445 102.415ZM336.36 109.89L335.461 110.326C336.779 113.045 337.44 115.972 337.44 119.12H338.44H339.44C339.44 115.681 338.715 112.455 337.26 109.454L336.36 109.89ZM338.44 119.12H337.44C337.44 122.268 336.779 125.195 335.461 127.914L336.36 128.35L337.26 128.786C338.715 125.785 339.44 122.559 339.44 119.12H338.44ZM336.36 128.35L335.461 127.914C334.138 130.642 332.255 133.045 329.799 135.127L330.445 135.89L331.092 136.653C333.749 134.401 335.81 131.778 337.26 128.786L336.36 128.35ZM330.445 135.89L329.8 135.126C327.39 137.162 324.51 138.773 321.145 139.951L321.475 140.895L321.806 141.839C325.374 140.59 328.474 138.865 331.091 136.654L330.445 135.89ZM321.475 140.895L321.152 139.949C317.847 141.078 314.167 141.65 310.1 141.65V142.65V143.65C314.354 143.65 318.257 143.052 321.799 141.841L321.475 140.895ZM310.1 133.42V134.42C312.873 134.42 315.444 134.062 317.805 133.336L317.51 132.38L317.216 131.424C315.071 132.084 312.701 132.42 310.1 132.42V133.42ZM317.51 132.38L317.821 133.33C320.172 132.562 322.23 131.492 323.98 130.11L323.36 129.325L322.741 128.54C321.198 129.758 319.356 130.725 317.2 131.43L317.51 132.38ZM323.36 129.325L323.98 130.11C325.729 128.729 327.101 127.106 328.081 125.24L327.195 124.775L326.31 124.31C325.47 125.911 324.285 127.321 322.741 128.54L323.36 129.325ZM327.195 124.775L328.081 125.24C329.069 123.357 329.56 121.312 329.56 119.12H328.56H327.56C327.56 121.001 327.142 122.726 326.31 124.31L327.195 124.775ZM328.56 119.12H329.56C329.56 116.928 329.069 114.883 328.081 113L327.195 113.465L326.31 113.93C327.142 115.514 327.56 117.239 327.56 119.12H328.56ZM327.195 113.465L328.081 113C327.099 111.13 325.723 109.525 323.967 108.185L323.36 108.98L322.754 109.775C324.291 110.948 325.472 112.333 326.31 113.93L327.195 113.465ZM323.36 108.98L323.98 108.195C322.23 106.813 320.172 105.743 317.821 104.975L317.51 105.925L317.2 106.875C319.356 107.58 321.198 108.547 322.741 109.765L323.36 108.98ZM317.51 105.925L317.821 104.975C315.455 104.201 312.879 103.82 310.1 103.82V104.82V105.82C312.695 105.82 315.059 106.176 317.2 106.875L317.51 105.925ZM310.1 104.82V103.82C307.322 103.82 304.746 104.201 302.38 104.975L302.69 105.925L303.001 106.875C305.142 106.176 307.505 105.82 310.1 105.82V104.82ZM302.69 105.925L302.38 104.975C300.03 105.743 297.955 106.811 296.166 108.187L296.775 108.98L297.385 109.773C298.976 108.549 300.844 107.581 303.001 106.875L302.69 105.925ZM296.775 108.98L296.169 108.185C294.409 109.528 293.05 111.139 292.111 113.018L293.005 113.465L293.9 113.912C294.694 112.324 295.848 110.946 297.382 109.775L296.775 108.98ZM293.005 113.465L292.111 113.018C291.171 114.897 290.705 116.936 290.705 119.12H291.705H292.705C292.705 117.23 293.106 115.5 293.9 113.912L293.005 113.465ZM291.705 119.12H290.705C290.705 121.304 291.171 123.343 292.111 125.222L293.005 124.775L293.9 124.328C293.106 122.74 292.705 121.01 292.705 119.12H291.705ZM293.005 124.775L292.111 125.222C293.049 127.098 294.404 128.727 296.156 130.11L296.775 129.325L297.395 128.54C295.854 127.323 294.696 125.919 293.9 124.328L293.005 124.775ZM296.775 129.325L296.166 130.118C297.955 131.494 300.03 132.562 302.38 133.33L302.69 132.38L303.001 131.43C300.844 130.724 298.976 129.756 297.385 128.532L296.775 129.325ZM302.69 132.38L302.396 133.336C304.757 134.062 307.328 134.42 310.1 134.42V133.42V132.42C307.5 132.42 305.13 132.084 302.985 131.424L302.69 132.38ZM358.967 142L358.059 142.418L358.327 143H358.967V142ZM338.037 96.5V95.5H336.477L337.129 96.9179L338.037 96.5ZM348.307 96.5L349.22 96.0916L348.955 95.5H348.307V96.5ZM359.097 120.615L360.016 120.221L360.013 120.214L360.01 120.207L359.097 120.615ZM360.267 123.215L359.359 123.634L359.362 123.641L359.366 123.648L360.267 123.215ZM361.957 126.985L361.037 127.376L361.044 127.393L361.052 127.409L361.957 126.985ZM363.777 131.275L362.843 131.632L362.85 131.649L362.857 131.666L363.777 131.275ZM365.272 135.37L365.301 136.37L366.605 136.332L366.23 135.083L365.272 135.37ZM362.997 135.435L362.046 135.126L361.609 136.475L363.026 136.435L362.997 135.435ZM364.882 130.365L363.967 129.963L363.962 129.972L363.959 129.982L364.882 130.365ZM367.157 125.23L368.07 125.638L368.074 125.63L367.157 125.23ZM369.042 120.745L368.12 120.359L368.117 120.366L368.114 120.374L369.042 120.745ZM379.182 96.5V95.5H378.517L378.26 96.1142L379.182 96.5ZM389.517 96.5L390.43 96.9093L391.062 95.5H389.517V96.5ZM369.107 142V143H369.755L370.02 142.409L369.107 142ZM358.967 142L359.876 141.582L338.946 96.0821L338.037 96.5L337.129 96.9179L358.059 142.418L358.967 142ZM338.037 96.5V97.5H348.307V96.5V95.5H338.037V96.5ZM348.307 96.5L347.394 96.9084L358.184 121.023L359.097 120.615L360.01 120.207L349.22 96.0916L348.307 96.5ZM359.097 120.615L358.178 121.009C358.444 121.628 358.838 122.505 359.359 123.634L360.267 123.215L361.175 122.796C360.656 121.672 360.271 120.815 360.016 120.221L359.097 120.615ZM360.267 123.215L359.366 123.648C359.877 124.714 360.434 125.956 361.037 127.376L361.957 126.985L362.878 126.594C362.267 125.154 361.697 123.883 361.169 122.782L360.267 123.215ZM361.957 126.985L361.052 127.409C361.691 128.773 362.288 130.181 362.843 131.632L363.777 131.275L364.711 130.918C364.14 129.422 363.523 127.97 362.863 126.561L361.957 126.985ZM363.777 131.275L362.857 131.666C363.451 133.067 363.936 134.397 364.314 135.657L365.272 135.37L366.23 135.083C365.828 133.743 365.317 132.343 364.698 130.884L363.777 131.275ZM365.272 135.37L365.244 134.37L362.969 134.435L362.997 135.435L363.026 136.435L365.301 136.37L365.272 135.37ZM362.997 135.435L363.948 135.744C364.459 134.169 365.078 132.504 365.806 130.748L364.882 130.365L363.959 129.982C363.213 131.78 362.575 133.495 362.046 135.126L362.997 135.435ZM364.882 130.365L365.798 130.767C366.577 128.992 367.334 127.283 368.07 125.638L367.157 125.23L366.244 124.822C365.507 126.471 364.747 128.184 363.967 129.963L364.882 130.365ZM367.157 125.23L368.074 125.63C368.813 123.933 369.446 122.428 369.971 121.116L369.042 120.745L368.114 120.374C367.599 121.662 366.974 123.147 366.241 124.83L367.157 125.23ZM369.042 120.745L369.965 121.131L380.105 96.8858L379.182 96.5L378.26 96.1142L368.12 120.359L369.042 120.745ZM379.182 96.5V97.5H389.517V96.5V95.5H379.182V96.5ZM389.517 96.5L388.605 96.0907L368.195 141.591L369.107 142L370.02 142.409L390.43 96.9093L389.517 96.5ZM369.107 142V141H358.967V142V143H369.107V142ZM391.935 142L390.997 142.348L391.239 143H391.935V142ZM389.595 135.695L388.951 134.93L388.412 135.383L388.657 136.043L389.595 135.695ZM403.895 123.67L404.539 124.435L404.552 124.424L404.565 124.412L403.895 123.67ZM407.925 120.03L408.595 120.772L408.602 120.766L408.608 120.76L407.925 120.03ZM414.62 106.64L413.774 107.174L413.781 107.184L413.788 107.195L414.62 106.64ZM412.28 104.755L411.881 105.672L411.888 105.675L411.895 105.678L412.28 104.755ZM404.155 104.885L404.471 105.834L404.479 105.831L404.488 105.828L404.155 104.885ZM399.995 107.29L400.623 108.068L400.63 108.062L400.638 108.056L399.995 107.29ZM396.16 111.71L395.629 112.557L396.461 113.08L396.998 112.256L396.16 111.71ZM389.01 107.225L388.183 106.663L387.6 107.521L388.479 108.072L389.01 107.225ZM394.21 101.375L394.866 102.13L394.867 102.129L394.21 101.375ZM401.165 97.15L400.799 96.2194L400.794 96.2215L401.165 97.15ZM418 97.28L417.566 98.181L417.573 98.1843L417.58 98.1875L418 97.28ZM423.395 101.765L422.56 102.315L422.567 102.326L422.575 102.337L423.395 101.765ZM424.5 112.815L425.43 113.182L425.434 113.172L424.5 112.815ZM422.16 116.975L421.357 116.379L421.357 116.379L422.16 116.975ZM418.78 120.875L418.073 120.168L418.067 120.174L418.061 120.18L418.78 120.875ZM414.945 124.515L415.6 125.271L415.602 125.269L414.945 124.515ZM411.11 127.83L411.759 128.59L411.763 128.587L411.11 127.83ZM399.085 138.1L398.087 138.167L398.22 140.154L399.734 138.86L399.085 138.1ZM398.76 133.225V132.225H397.691L397.762 133.292L398.76 133.225ZM427.23 133.225H428.23V132.225H427.23V133.225ZM427.23 142V143H428.23V142H427.23ZM391.935 142L392.872 141.652L390.532 135.347L389.595 135.695L388.657 136.043L390.997 142.348L391.935 142ZM389.595 135.695L390.239 136.46L404.539 124.435L403.895 123.67L403.251 122.905L388.951 134.93L389.595 135.695ZM403.895 123.67L404.565 124.412C405.909 123.199 407.252 121.985 408.595 120.772L407.925 120.03L407.255 119.288C405.911 120.501 404.568 121.715 403.225 122.928L403.895 123.67ZM407.925 120.03L408.608 120.76C409.967 119.489 411.218 118.238 412.363 117.005L411.63 116.325L410.897 115.645C409.788 116.839 408.57 118.057 407.242 119.3L407.925 120.03ZM411.63 116.325L412.363 117.005C413.528 115.751 414.484 114.503 415.22 113.26L414.36 112.75L413.5 112.24C412.849 113.337 411.985 114.473 410.897 115.645L411.63 116.325ZM414.36 112.75L415.22 113.26C415.978 111.982 416.4 110.702 416.4 109.435H415.4H414.4C414.4 110.248 414.129 111.178 413.5 112.24L414.36 112.75ZM415.4 109.435H416.4C416.4 108.186 416.098 107.054 415.452 106.085L414.62 106.64L413.788 107.195C414.182 107.786 414.4 108.518 414.4 109.435H415.4ZM414.62 106.64L415.465 106.106C414.819 105.082 413.864 104.332 412.665 103.832L412.28 104.755L411.895 105.678C412.776 106.045 413.381 106.551 413.774 107.174L414.62 106.64ZM412.28 104.755L412.679 103.838C411.52 103.334 410.139 103.105 408.575 103.105V104.105V105.105C409.957 105.105 411.047 105.309 411.881 105.672L412.28 104.755ZM408.575 104.105V103.105C406.982 103.105 405.396 103.387 403.822 103.942L404.155 104.885L404.488 105.828C405.861 105.343 407.222 105.105 408.575 105.105V104.105ZM404.155 104.885L403.839 103.936C402.272 104.459 400.777 105.329 399.352 106.524L399.995 107.29L400.638 108.056C401.9 106.997 403.178 106.265 404.471 105.834L404.155 104.885ZM399.995 107.29L399.367 106.512C397.922 107.677 396.577 109.237 395.322 111.164L396.16 111.71L396.998 112.256C398.17 110.456 399.381 109.07 400.623 108.068L399.995 107.29ZM396.16 111.71L396.691 110.863L389.541 106.378L389.01 107.225L388.479 108.072L395.629 112.557L396.16 111.71ZM389.01 107.225L389.837 107.787C391.261 105.692 392.937 103.807 394.866 102.13L394.21 101.375L393.554 100.62C391.496 102.41 389.705 104.424 388.183 106.663L389.01 107.225ZM394.21 101.375L394.867 102.129C396.816 100.429 399.037 99.0782 401.536 98.0785L401.165 97.15L400.794 96.2215C398.093 97.3018 395.677 98.7681 393.553 100.621L394.21 101.375ZM401.165 97.15L401.531 98.0806C404.05 97.0895 406.763 96.59 409.68 96.59V95.59V94.59C406.53 94.59 403.566 95.1305 400.799 96.2194L401.165 97.15ZM409.68 95.59V96.59C412.771 96.59 415.389 97.133 417.566 98.181L418 97.28L418.434 96.379C415.93 95.1737 413.002 94.59 409.68 94.59V95.59ZM418 97.28L417.58 98.1875C419.773 99.203 421.418 100.583 422.56 102.315L423.395 101.765L424.23 101.215C422.858 99.1333 420.906 97.5237 418.42 96.3725L418 97.28ZM423.395 101.765L422.575 102.337C423.747 104.018 424.345 105.981 424.345 108.265H425.345H426.345C426.345 105.609 425.642 103.239 424.215 101.193L423.395 101.765ZM425.345 108.265H424.345C424.345 109.702 424.086 111.097 423.566 112.458L424.5 112.815L425.434 113.172C426.04 111.586 426.345 109.948 426.345 108.265H425.345ZM424.5 112.815L423.57 112.448C423.041 113.79 422.306 115.1 421.357 116.379L422.16 116.975L422.963 117.571C424.007 116.163 424.832 114.7 425.43 113.182L424.5 112.815ZM422.16 116.975L421.357 116.379C420.391 117.681 419.297 118.944 418.073 120.168L418.78 120.875L419.487 121.582C420.776 120.293 421.935 118.956 422.963 117.571L422.16 116.975ZM418.78 120.875L418.061 120.18C416.868 121.416 415.61 122.609 414.288 123.761L414.945 124.515L415.602 125.269C416.966 124.081 418.266 122.847 419.499 121.57L418.78 120.875ZM414.945 124.515L414.29 123.759C412.991 124.885 411.713 125.99 410.457 127.073L411.11 127.83L411.763 128.587C413.02 127.503 414.299 126.398 415.6 125.271L414.945 124.515ZM411.11 127.83L410.461 127.07L398.435 137.34L399.085 138.1L399.734 138.86L411.759 128.59L411.11 127.83ZM399.085 138.1L400.083 138.033L399.758 133.158L398.76 133.225L397.762 133.292L398.087 138.167L399.085 138.1ZM398.76 133.225V134.225H427.23V133.225V132.225H398.76V133.225ZM427.23 133.225H426.23V142H427.23H428.23V133.225H427.23ZM427.23 142V141H391.935V142V143H427.23V142ZM433.04 142H432.04V143H433.04V142ZM433.04 96.5V95.5H432.04V96.5H433.04ZM442.79 96.5H443.79V95.5H442.79V96.5ZM442.79 133.225H441.79V134.225H442.79V133.225ZM472.495 133.225H473.495V132.225H472.495V133.225ZM472.495 142V143H473.495V142H472.495ZM433.04 142H434.04V96.5H433.04H432.04V142H433.04ZM433.04 96.5V97.5H442.79V96.5V95.5H433.04V96.5ZM442.79 96.5H441.79V133.225H442.79H443.79V96.5H442.79ZM442.79 133.225V134.225H472.495V133.225V132.225H442.79V133.225ZM472.495 133.225H471.495V142H472.495H473.495V133.225H472.495ZM472.495 142V141H433.04V142V143H472.495V142ZM488.56 142H487.56V143H488.56V142ZM488.56 121.655L489.528 121.404L487.56 121.655H488.56ZM489.86 126.66L489.084 127.29L490.828 126.409L489.86 126.66ZM465.42 96.5V95.5H463.323L464.644 97.1296L465.42 96.5ZM477.965 96.5L478.757 95.8882L478.456 95.5H477.965V96.5ZM495.71 119.445V120.445H497.748L496.502 118.833L495.71 119.445ZM491.42 119.445L490.622 118.843L489.415 120.445H491.42V119.445ZM508.71 96.5V95.5H508.212L507.912 95.8982L508.71 96.5ZM520.215 96.5L521.004 97.1152L522.264 95.5H520.215V96.5ZM498.05 124.905L497.054 124.819L496.765 128.178L498.839 125.52L498.05 124.905ZM498.375 121.135H499.375L497.379 121.049L498.375 121.135ZM498.375 142V143H499.375V142H498.375ZM488.56 142H489.56V121.655H488.56H487.56V142H488.56ZM488.56 121.655L487.593 121.906L488.893 126.911L489.86 126.66L490.828 126.409L489.528 121.404L488.56 121.655ZM489.86 126.66L490.637 126.03L466.197 95.8704L465.42 96.5L464.644 97.1296L489.084 127.29L489.86 126.66ZM465.42 96.5V97.5H477.965V96.5V95.5H465.42V96.5ZM477.965 96.5L477.174 97.1118L494.919 120.057L495.71 119.445L496.502 118.833L478.757 95.8882L477.965 96.5ZM495.71 119.445V118.445H491.42V119.445V120.445H495.71V119.445ZM491.42 119.445L492.219 120.047L509.509 97.1018L508.71 96.5L507.912 95.8982L490.622 118.843L491.42 119.445ZM508.71 96.5V97.5H520.215V96.5V95.5H508.71V96.5ZM520.215 96.5L519.427 95.8848L497.262 124.29L498.05 124.905L498.839 125.52L521.004 97.1152L520.215 96.5ZM498.05 124.905L499.047 124.991L499.372 121.221L498.375 121.135L497.379 121.049L497.054 124.819L498.05 124.905ZM498.375 121.135H497.375V142H498.375H499.375V121.135H498.375ZM498.375 142V141H488.56V142V143H498.375V142ZM239.921 223H238.921V224H239.921V223ZM239.921 177.5V176.5H238.921V177.5H239.921ZM275.411 178.865L275.085 179.811L275.094 179.814L275.104 179.817L275.411 178.865ZM281.456 182.7L280.673 183.322L280.678 183.328L280.682 183.334L281.456 182.7ZM281.196 195.18L280.444 194.52L280.443 194.521L281.196 195.18ZM274.306 198.885L273.352 198.584L272.82 200.269L274.538 199.858L274.306 198.885ZM274.696 197.65L274.917 196.675L274.019 196.471L273.742 197.349L274.696 197.65ZM280.156 199.73L279.674 200.606L279.674 200.606L280.156 199.73ZM284.316 203.565L283.477 204.109L283.485 204.122L283.494 204.135L284.316 203.565ZM284.251 216.11L285.095 216.646L285.095 216.646L284.251 216.11ZM279.766 220.27L279.294 219.388L279.766 220.27ZM273.656 222.415L273.833 223.399L273.84 223.398L273.848 223.396L273.656 222.415ZM249.281 214.55H248.281V215.55H249.281V214.55ZM271.966 213.965L271.687 213.005L271.678 213.007L271.966 213.965ZM275.086 212.145L274.342 211.476L274.34 211.478L275.086 212.145ZM274.761 205.58L274.107 206.337L274.125 206.353L274.144 206.368L274.761 205.58ZM271.186 203.89L270.943 204.86L270.96 204.865L270.978 204.868L271.186 203.89ZM249.281 203.37V202.37H248.281V203.37H249.281ZM249.281 195.57H248.281V196.57H249.281V195.57ZM269.951 194.985L269.644 194.033L269.634 194.036L269.951 194.985ZM272.746 193.295L272.017 192.61L272.006 192.621L271.996 192.633L272.746 193.295ZM271.381 186.99L270.974 187.904L270.984 187.908L271.381 186.99ZM249.281 185.95V184.95H248.281V185.95H249.281ZM239.921 223H240.921V177.5H239.921H238.921V223H239.921ZM239.921 177.5V178.5H265.531V177.5V176.5H239.921V177.5ZM265.531 177.5V178.5C269.405 178.5 272.58 178.948 275.085 179.811L275.411 178.865L275.736 177.919C272.955 176.962 269.543 176.5 265.531 176.5V177.5ZM275.411 178.865L275.104 179.817C277.659 180.641 279.485 181.828 280.673 183.322L281.456 182.7L282.238 182.078C280.74 180.192 278.535 178.822 275.718 177.913L275.411 178.865ZM281.456 182.7L280.682 183.334C281.912 184.832 282.536 186.619 282.536 188.745H283.536H284.536C284.536 186.191 283.773 183.948 282.229 182.066L281.456 182.7ZM283.536 188.745H282.536C282.536 191.032 281.833 192.938 280.444 194.52L281.196 195.18L281.947 195.84C283.678 193.869 284.536 191.485 284.536 188.745H283.536ZM281.196 195.18L280.443 194.521C279.105 196.05 277.021 197.206 274.073 197.912L274.306 198.885L274.538 199.858C277.743 199.09 280.252 197.776 281.948 195.839L281.196 195.18ZM274.306 198.885L275.259 199.186L275.649 197.951L274.696 197.65L273.742 197.349L273.352 198.584L274.306 198.885ZM274.696 197.65L274.474 198.625C276.289 199.038 278.021 199.697 279.674 200.606L280.156 199.73L280.637 198.854C278.823 197.856 276.916 197.129 274.917 196.675L274.696 197.65ZM280.156 199.73L279.674 200.606C281.268 201.483 282.53 202.649 283.477 204.109L284.316 203.565L285.154 203.021C284.021 201.274 282.51 199.884 280.637 198.854L280.156 199.73ZM284.316 203.565L283.494 204.135C284.439 205.496 284.941 207.214 284.941 209.35H285.941H286.941C286.941 206.893 286.359 204.754 285.137 202.995L284.316 203.565ZM285.941 209.35H284.941C284.941 211.946 284.405 213.999 283.406 215.574L284.251 216.11L285.095 216.646C286.349 214.667 286.941 212.214 286.941 209.35H285.941ZM284.251 216.11L283.406 215.574C282.372 217.205 281.006 218.473 279.294 219.388L279.766 220.27L280.237 221.152C282.252 220.074 283.876 218.569 285.095 216.646L284.251 216.11ZM279.766 220.27L279.294 219.388C277.524 220.335 275.582 221.018 273.463 221.434L273.656 222.415L273.848 223.396C276.149 222.945 278.281 222.198 280.237 221.152L279.766 220.27ZM273.656 222.415L273.478 221.431C271.368 221.811 269.282 222 267.221 222V223V224C269.405 224 271.61 223.799 273.833 223.399L273.656 222.415ZM267.221 223V222H239.921V223V224H267.221V223ZM249.281 214.55V215.55H267.481V214.55V213.55H249.281V214.55ZM267.481 214.55V215.55C269.245 215.55 270.84 215.347 272.253 214.923L271.966 213.965L271.678 213.007C270.491 213.363 269.096 213.55 267.481 213.55V214.55ZM271.966 213.965L272.244 214.925C273.72 214.497 274.94 213.807 275.831 212.812L275.086 212.145L274.34 211.478C273.758 212.129 272.898 212.653 271.687 213.005L271.966 213.965ZM275.086 212.145L275.829 212.814C276.788 211.749 277.256 210.443 277.256 208.96H276.256H275.256C275.256 209.991 274.943 210.808 274.342 211.476L275.086 212.145ZM276.256 208.96H277.256C277.256 207.236 276.657 205.795 275.377 204.792L274.761 205.58L274.144 206.368C274.857 206.925 275.256 207.737 275.256 208.96H276.256ZM274.761 205.58L275.414 204.823C274.314 203.873 272.961 203.244 271.393 202.912L271.186 203.89L270.978 204.868C272.27 205.142 273.3 205.64 274.107 206.337L274.761 205.58ZM271.186 203.89L271.428 202.92C269.97 202.555 268.545 202.37 267.156 202.37V203.37V204.37C268.366 204.37 269.628 204.531 270.943 204.86L271.186 203.89ZM267.156 203.37V202.37H249.281V203.37V204.37H267.156V203.37ZM249.281 203.37H248.281V214.55H249.281H250.281V203.37H249.281ZM249.281 195.57V196.57H266.051V195.57V194.57H249.281V195.57ZM266.051 195.57V196.57C267.571 196.57 268.98 196.363 270.267 195.934L269.951 194.985L269.634 194.036C268.581 194.387 267.39 194.57 266.051 194.57V195.57ZM269.951 194.985L270.257 195.937C271.591 195.508 272.696 194.863 273.495 193.957L272.746 193.295L271.996 192.633C271.495 193.201 270.736 193.682 269.644 194.033L269.951 194.985ZM272.746 193.295L273.474 193.98C274.347 193.053 274.786 191.917 274.786 190.63H273.786H272.786C272.786 191.423 272.531 192.064 272.017 192.61L272.746 193.295ZM273.786 190.63H274.786C274.786 189.606 274.547 188.668 274.019 187.869C273.491 187.07 272.721 186.48 271.777 186.072L271.381 186.99L270.984 187.908C271.643 188.193 272.076 188.557 272.35 188.971C272.623 189.385 272.786 189.921 272.786 190.63H273.786ZM271.381 186.99L271.787 186.076C270.061 185.309 267.962 184.95 265.531 184.95V185.95V186.95C267.779 186.95 269.58 187.284 270.974 187.904L271.381 186.99ZM265.531 185.95V184.95H249.281V185.95V186.95H265.531V185.95ZM249.281 185.95H248.281V195.57H249.281H250.281V185.95H249.281ZM307.378 221.895L307.044 222.838L307.051 222.84L307.059 222.842L307.378 221.895ZM298.408 216.89L297.762 217.653L297.769 217.659L298.408 216.89ZM292.493 209.35L291.588 209.775L291.593 209.786L292.493 209.35ZM292.558 190.89L293.458 191.326L292.558 190.89ZM298.408 183.415L299.054 184.179L299.055 184.178L298.408 183.415ZM307.378 178.41L307.702 179.356L307.709 179.354L307.378 178.41ZM330.193 178.41L329.859 179.353L329.866 179.355L329.874 179.357L330.193 178.41ZM339.163 183.415L338.51 184.172L338.517 184.178L338.524 184.184L339.163 183.415ZM345.078 190.89L344.179 191.326L345.078 190.89ZM345.078 209.35L345.978 209.786L345.978 209.786L345.078 209.35ZM339.163 216.89L339.809 217.654L339.81 217.653L339.163 216.89ZM330.193 221.895L330.517 222.841L330.524 222.839L330.193 221.895ZM326.228 213.38L326.522 214.336L326.531 214.333L326.539 214.33L326.228 213.38ZM335.913 205.775L336.799 206.24L336.799 206.24L335.913 205.775ZM335.913 194.465L336.799 194L336.799 194L335.913 194.465ZM332.078 189.98L331.459 190.765L331.465 190.77L331.472 190.775L332.078 189.98ZM326.228 186.925L325.918 187.875L325.918 187.875L326.228 186.925ZM311.408 186.925L311.719 187.875L311.719 187.875L311.408 186.925ZM305.493 189.98L306.1 190.775L306.103 190.773L305.493 189.98ZM301.723 194.465L300.829 194.018L300.829 194.018L301.723 194.465ZM301.723 205.775L300.829 206.222L300.829 206.222L301.723 205.775ZM305.493 210.325L304.874 211.11L304.884 211.118L305.493 210.325ZM311.408 213.38L311.098 214.33L311.106 214.333L311.114 214.336L311.408 213.38ZM318.818 223.65V222.65C314.752 222.65 311.049 222.078 307.698 220.948L307.378 221.895L307.059 222.842C310.641 224.052 314.564 224.65 318.818 224.65V223.65ZM307.378 221.895L307.712 220.952C304.39 219.775 301.505 218.162 299.047 216.121L298.408 216.89L297.769 217.659C300.425 219.865 303.52 221.589 307.044 222.838L307.378 221.895ZM298.408 216.89L299.055 216.127C296.599 214.045 294.716 211.642 293.393 208.914L292.493 209.35L291.593 209.786C293.044 212.778 295.105 215.401 297.762 217.653L298.408 216.89ZM292.493 209.35L293.398 208.925C292.12 206.204 291.478 203.273 291.478 200.12H290.478H289.478C289.478 203.554 290.18 206.776 291.588 209.775L292.493 209.35ZM290.478 200.12H291.478C291.478 196.972 292.14 194.045 293.458 191.326L292.558 190.89L291.658 190.454C290.203 193.455 289.478 196.681 289.478 200.12H290.478ZM292.558 190.89L293.458 191.326C294.782 188.597 296.643 186.215 299.054 184.179L298.408 183.415L297.763 182.651C295.147 184.861 293.108 187.463 291.658 190.454L292.558 190.89ZM298.408 183.415L299.055 184.178C301.509 182.098 304.387 180.489 307.702 179.356L307.378 178.41L307.055 177.464C303.523 178.671 300.421 180.398 297.762 182.652L298.408 183.415ZM307.378 178.41L307.709 179.354C311.056 178.182 314.756 177.59 318.818 177.59V176.59V175.59C314.561 175.59 310.634 176.211 307.048 177.466L307.378 178.41ZM318.818 176.59V177.59C322.881 177.59 326.558 178.182 329.859 179.353L330.193 178.41L330.527 177.467C326.982 176.211 323.076 175.59 318.818 175.59V176.59ZM330.193 178.41L329.874 179.357C333.23 180.49 336.104 182.098 338.51 184.172L339.163 183.415L339.816 182.658C337.196 180.398 334.089 178.67 330.513 177.463L330.193 178.41ZM339.163 183.415L338.524 184.184C340.976 186.221 342.857 188.6 344.179 191.326L345.078 190.89L345.978 190.454C344.526 187.46 342.463 184.856 339.802 182.646L339.163 183.415ZM345.078 190.89L344.179 191.326C345.497 194.045 346.158 196.972 346.158 200.12H347.158H348.158C348.158 196.681 347.433 193.455 345.978 190.454L345.078 190.89ZM347.158 200.12H346.158C346.158 203.268 345.497 206.195 344.179 208.914L345.078 209.35L345.978 209.786C347.433 206.785 348.158 203.559 348.158 200.12H347.158ZM345.078 209.35L344.179 208.914C342.856 211.642 340.973 214.045 338.517 216.127L339.163 216.89L339.81 217.653C342.467 215.401 344.527 212.778 345.978 209.786L345.078 209.35ZM339.163 216.89L338.518 216.126C336.108 218.162 333.228 219.773 329.863 220.951L330.193 221.895L330.524 222.839C334.092 221.59 337.192 219.865 339.809 217.654L339.163 216.89ZM330.193 221.895L329.87 220.949C326.565 222.078 322.884 222.65 318.818 222.65V223.65V224.65C323.072 224.65 326.975 224.052 330.517 222.841L330.193 221.895ZM318.818 214.42V215.42C321.591 215.42 324.162 215.062 326.522 214.336L326.228 213.38L325.934 212.424C323.788 213.084 321.419 213.42 318.818 213.42V214.42ZM326.228 213.38L326.539 214.33C328.89 213.562 330.948 212.492 332.698 211.11L332.078 210.325L331.459 209.54C329.916 210.758 328.073 211.725 325.918 212.43L326.228 213.38ZM332.078 210.325L332.698 211.11C334.447 209.729 335.819 208.106 336.799 206.24L335.913 205.775L335.028 205.31C334.188 206.911 333.003 208.321 331.459 209.54L332.078 210.325ZM335.913 205.775L336.799 206.24C337.787 204.357 338.278 202.312 338.278 200.12H337.278H336.278C336.278 202.001 335.86 203.726 335.028 205.31L335.913 205.775ZM337.278 200.12H338.278C338.278 197.928 337.787 195.883 336.799 194L335.913 194.465L335.028 194.93C335.86 196.514 336.278 198.239 336.278 200.12H337.278ZM335.913 194.465L336.799 194C335.817 192.13 334.441 190.525 332.685 189.185L332.078 189.98L331.472 190.775C333.009 191.948 334.19 193.333 335.028 194.93L335.913 194.465ZM332.078 189.98L332.698 189.195C330.948 187.813 328.89 186.743 326.539 185.975L326.228 186.925L325.918 187.875C328.073 188.58 329.916 189.547 331.459 190.765L332.078 189.98ZM326.228 186.925L326.539 185.975C324.173 185.201 321.597 184.82 318.818 184.82V185.82V186.82C321.413 186.82 323.777 187.176 325.918 187.875L326.228 186.925ZM318.818 185.82V184.82C316.04 184.82 313.464 185.201 311.098 185.975L311.408 186.925L311.719 187.875C313.86 187.176 316.223 186.82 318.818 186.82V185.82ZM311.408 186.925L311.098 185.975C308.748 186.743 306.673 187.811 304.884 189.187L305.493 189.98L306.103 190.773C307.694 189.549 309.562 188.581 311.719 187.875L311.408 186.925ZM305.493 189.98L304.887 189.185C303.127 190.528 301.768 192.139 300.829 194.018L301.723 194.465L302.618 194.912C303.412 193.324 304.566 191.946 306.1 190.775L305.493 189.98ZM301.723 194.465L300.829 194.018C299.889 195.897 299.423 197.936 299.423 200.12H300.423H301.423C301.423 198.23 301.824 196.5 302.618 194.912L301.723 194.465ZM300.423 200.12H299.423C299.423 202.304 299.889 204.343 300.829 206.222L301.723 205.775L302.618 205.328C301.824 203.74 301.423 202.01 301.423 200.12H300.423ZM301.723 205.775L300.829 206.222C301.767 208.098 303.121 209.727 304.874 211.11L305.493 210.325L306.113 209.54C304.572 208.323 303.413 206.919 302.618 205.328L301.723 205.775ZM305.493 210.325L304.884 211.118C306.673 212.494 308.748 213.562 311.098 214.33L311.408 213.38L311.719 212.43C309.562 211.724 307.694 210.756 306.103 209.532L305.493 210.325ZM311.408 213.38L311.114 214.336C313.475 215.062 316.046 215.42 318.818 215.42V214.42V213.42C316.218 213.42 313.848 213.084 311.702 212.424L311.408 213.38ZM368.613 221.895L368.279 222.838L368.286 222.84L368.293 222.842L368.613 221.895ZM359.643 216.89L358.996 217.653L359.004 217.659L359.643 216.89ZM353.728 209.35L352.823 209.775L352.828 209.786L353.728 209.35ZM353.793 190.89L354.693 191.326L353.793 190.89ZM359.643 183.415L360.288 184.179L360.289 184.178L359.643 183.415ZM368.613 178.41L368.936 179.356L368.943 179.354L368.613 178.41ZM391.428 178.41L391.094 179.353L391.101 179.355L391.108 179.357L391.428 178.41ZM400.398 183.415L399.745 184.172L399.752 184.178L399.759 184.184L400.398 183.415ZM406.313 190.89L405.413 191.326L406.313 190.89ZM406.313 209.35L407.213 209.786L407.213 209.786L406.313 209.35ZM400.398 216.89L401.043 217.654L401.044 217.653L400.398 216.89ZM391.428 221.895L391.751 222.841L391.758 222.839L391.428 221.895ZM387.463 213.38L387.757 214.336L387.765 214.333L387.774 214.33L387.463 213.38ZM397.148 205.775L398.033 206.24L398.033 206.24L397.148 205.775ZM397.148 194.465L398.033 194L398.033 194L397.148 194.465ZM393.313 189.98L392.693 190.765L392.7 190.77L392.706 190.775L393.313 189.98ZM387.463 186.925L387.152 187.875L387.152 187.875L387.463 186.925ZM372.643 186.925L372.954 187.875L372.954 187.875L372.643 186.925ZM366.728 189.98L367.335 190.775L367.338 190.773L366.728 189.98ZM362.958 194.465L362.063 194.018L362.063 194.018L362.958 194.465ZM362.958 205.775L362.063 206.222L362.063 206.222L362.958 205.775ZM366.728 210.325L366.108 211.11L366.118 211.118L366.728 210.325ZM372.643 213.38L372.332 214.33L372.34 214.333L372.349 214.336L372.643 213.38ZM380.053 223.65V222.65C375.987 222.65 372.283 222.078 368.933 220.948L368.613 221.895L368.293 222.842C371.876 224.052 375.799 224.65 380.053 224.65V223.65ZM368.613 221.895L368.947 220.952C365.624 219.775 362.74 218.162 360.282 216.121L359.643 216.89L359.004 217.659C361.659 219.865 364.755 221.589 368.279 222.838L368.613 221.895ZM359.643 216.89L360.289 216.127C357.833 214.045 355.95 211.642 354.628 208.914L353.728 209.35L352.828 209.786C354.279 212.778 356.339 215.401 358.996 217.653L359.643 216.89ZM353.728 209.35L354.633 208.925C353.355 206.204 352.713 203.273 352.713 200.12H351.713H350.713C350.713 203.554 351.414 206.776 352.823 209.775L353.728 209.35ZM351.713 200.12H352.713C352.713 196.972 353.374 194.045 354.693 191.326L353.793 190.89L352.893 190.454C351.438 193.455 350.713 196.681 350.713 200.12H351.713ZM353.793 190.89L354.693 191.326C356.016 188.597 357.878 186.215 360.288 184.179L359.643 183.415L358.998 182.651C356.381 184.861 354.343 187.463 352.893 190.454L353.793 190.89ZM359.643 183.415L360.289 184.178C362.743 182.098 365.622 180.489 368.936 179.356L368.613 178.41L368.289 177.464C364.757 178.671 361.656 180.398 358.996 182.652L359.643 183.415ZM368.613 178.41L368.943 179.354C372.291 178.182 375.991 177.59 380.053 177.59V176.59V175.59C375.795 175.59 371.868 176.211 368.283 177.466L368.613 178.41ZM380.053 176.59V177.59C384.115 177.59 387.792 178.182 391.094 179.353L391.428 178.41L391.762 177.467C388.217 176.211 384.31 175.59 380.053 175.59V176.59ZM391.428 178.41L391.108 179.357C394.465 180.49 397.339 182.098 399.745 184.172L400.398 183.415L401.051 182.658C398.43 180.398 395.324 178.67 391.748 177.463L391.428 178.41ZM400.398 183.415L399.759 184.184C402.211 186.221 404.091 188.6 405.413 191.326L406.313 190.89L407.213 190.454C405.761 187.46 403.698 184.856 401.037 182.646L400.398 183.415ZM406.313 190.89L405.413 191.326C406.731 194.045 407.393 196.972 407.393 200.12H408.393H409.393C409.393 196.681 408.668 193.455 407.213 190.454L406.313 190.89ZM408.393 200.12H407.393C407.393 203.268 406.731 206.195 405.413 208.914L406.313 209.35L407.213 209.786C408.668 206.785 409.393 203.559 409.393 200.12H408.393ZM406.313 209.35L405.413 208.914C404.09 211.642 402.208 214.045 399.751 216.127L400.398 216.89L401.044 217.653C403.701 215.401 405.762 212.778 407.213 209.786L406.313 209.35ZM400.398 216.89L399.753 216.126C397.343 218.162 394.462 219.773 391.098 220.951L391.428 221.895L391.758 222.839C395.327 221.59 398.427 219.865 401.043 217.654L400.398 216.89ZM391.428 221.895L391.104 220.949C387.8 222.078 384.119 222.65 380.053 222.65V223.65V224.65C384.307 224.65 388.21 224.052 391.751 222.841L391.428 221.895ZM380.053 214.42V215.42C382.826 215.42 385.396 215.062 387.757 214.336L387.463 213.38L387.169 212.424C385.023 213.084 382.654 213.42 380.053 213.42V214.42ZM387.463 213.38L387.774 214.33C390.124 213.562 392.182 212.492 393.933 211.11L393.313 210.325L392.693 209.54C391.15 210.758 389.308 211.725 387.152 212.43L387.463 213.38ZM393.313 210.325L393.933 211.11C395.681 209.729 397.054 208.106 398.033 206.24L397.148 205.775L396.262 205.31C395.422 206.911 394.238 208.321 392.693 209.54L393.313 210.325ZM397.148 205.775L398.033 206.24C399.022 204.357 399.513 202.312 399.513 200.12H398.513H397.513C397.513 202.001 397.094 203.726 396.262 205.31L397.148 205.775ZM398.513 200.12H399.513C399.513 197.928 399.022 195.883 398.033 194L397.148 194.465L396.262 194.93C397.094 196.514 397.513 198.239 397.513 200.12H398.513ZM397.148 194.465L398.033 194C397.052 192.13 395.675 190.525 393.92 189.185L393.313 189.98L392.706 190.775C394.244 191.948 395.424 193.333 396.262 194.93L397.148 194.465ZM393.313 189.98L393.933 189.195C392.182 187.813 390.124 186.743 387.774 185.975L387.463 186.925L387.152 187.875C389.308 188.58 391.15 189.547 392.693 190.765L393.313 189.98ZM387.463 186.925L387.774 185.975C385.408 185.201 382.831 184.82 380.053 184.82V185.82V186.82C382.648 186.82 385.012 187.176 387.152 187.875L387.463 186.925ZM380.053 185.82V184.82C377.275 184.82 374.698 185.201 372.332 185.975L372.643 186.925L372.954 187.875C375.094 187.176 377.458 186.82 380.053 186.82V185.82ZM372.643 186.925L372.332 185.975C369.983 186.743 367.908 187.811 366.118 189.187L366.728 189.98L367.338 190.773C368.928 189.549 370.796 188.581 372.954 187.875L372.643 186.925ZM366.728 189.98L366.121 189.185C364.362 190.528 363.003 192.139 362.063 194.018L362.958 194.465L363.852 194.912C364.646 193.324 365.801 191.946 367.335 190.775L366.728 189.98ZM362.958 194.465L362.063 194.018C361.124 195.897 360.658 197.936 360.658 200.12H361.658H362.658C362.658 198.23 363.059 196.5 363.852 194.912L362.958 194.465ZM361.658 200.12H360.658C360.658 202.304 361.124 204.343 362.063 206.222L362.958 205.775L363.852 205.328C363.059 203.74 362.658 202.01 362.658 200.12H361.658ZM362.958 205.775L362.063 206.222C363.001 208.098 364.356 209.727 366.108 211.11L366.728 210.325L367.348 209.54C365.806 208.323 364.648 206.919 363.852 205.328L362.958 205.775ZM366.728 210.325L366.118 211.118C367.908 212.494 369.983 213.562 372.332 214.33L372.643 213.38L372.954 212.43C370.796 211.724 368.928 210.756 367.338 209.532L366.728 210.325ZM372.643 213.38L372.349 214.336C374.71 215.062 377.28 215.42 380.053 215.42V214.42V213.42C377.452 213.42 375.083 213.084 372.937 212.424L372.643 213.38ZM422.697 212.015L421.715 212.2L422.019 213.818L423.315 212.802L422.697 212.015ZM421.007 203.045L420.392 202.257L419.912 202.632L420.025 203.23L421.007 203.045ZM453.702 177.5V176.5H453.358L453.087 176.712L453.702 177.5ZM466.702 177.5L467.32 178.287L469.598 176.5H466.702V177.5ZM416.197 223H415.197V224H416.197V223ZM416.197 177.5V176.5H415.197V177.5H416.197ZM425.947 177.5H426.947V176.5H425.947V177.5ZM425.947 223V224H426.947V223H425.947ZM454.222 223L453.448 223.632L453.748 224H454.222V223ZM434.657 199.015L433.895 198.368L433.356 199.002L433.883 199.647L434.657 199.015ZM440.507 192.125L441.274 191.483L440.513 190.574L439.745 191.478L440.507 192.125ZM466.377 223V224H468.52L467.144 222.358L466.377 223ZM422.697 212.015L423.68 211.83L421.99 202.86L421.007 203.045L420.025 203.23L421.715 212.2L422.697 212.015ZM421.007 203.045L421.623 203.833L454.318 178.288L453.702 177.5L453.087 176.712L420.392 202.257L421.007 203.045ZM453.702 177.5V178.5H466.702V177.5V176.5H453.702V177.5ZM466.702 177.5L466.085 176.713L422.08 211.228L422.697 212.015L423.315 212.802L467.32 178.287L466.702 177.5ZM416.197 223H417.197V177.5H416.197H415.197V223H416.197ZM416.197 177.5V178.5H425.947V177.5V176.5H416.197V177.5ZM425.947 177.5H424.947V223H425.947H426.947V177.5H425.947ZM425.947 223V222H416.197V223V224H425.947V223ZM454.222 223L454.997 222.368L435.432 198.383L434.657 199.015L433.883 199.647L453.448 223.632L454.222 223ZM434.657 199.015L435.42 199.662L441.27 192.772L440.507 192.125L439.745 191.478L433.895 198.368L434.657 199.015ZM440.507 192.125L439.741 192.767L465.611 223.642L466.377 223L467.144 222.358L441.274 191.483L440.507 192.125ZM466.377 223V222H454.222V223V224H466.377V223ZM484.149 222.675L483.933 223.652L483.936 223.652L484.149 222.675ZM476.089 219.88L475.642 220.774L475.642 220.774L476.089 219.88ZM469.459 215.59L468.606 215.068L468.153 215.808L468.822 216.361L469.459 215.59ZM474.269 207.725L474.89 206.941L474.005 206.24L473.416 207.203L474.269 207.725ZM484.344 213.51L484.682 212.569L484.682 212.569L484.344 213.51ZM499.619 214.81L499.82 215.79L499.829 215.788L499.838 215.786L499.619 214.81ZM503.909 212.99L503.333 212.172L503.326 212.177L503.319 212.183L503.909 212.99ZM504.819 207.53L504.112 208.237L504.126 208.251L504.141 208.265L504.819 207.53ZM502.479 206.165L502.137 207.105L502.15 207.109L502.479 206.165ZM499.164 205.32L498.988 206.304L498.994 206.305L499.164 205.32ZM495.394 204.8L495.294 205.795L495.294 205.795L495.394 204.8ZM491.624 204.475L491.509 205.468L491.531 205.471L491.553 205.472L491.624 204.475ZM483.499 202.915L483.224 203.877L483.224 203.877L483.499 202.915ZM477.259 200.25L477.789 199.402L477.789 199.402L477.259 200.25ZM473.294 196.285L472.424 196.779L472.43 196.789L473.294 196.285ZM473.554 184.78L472.709 184.244L472.705 184.252L472.7 184.259L473.554 184.78ZM478.234 180.295L478.754 181.149L478.754 181.149L478.234 180.295ZM485.124 177.565L485.351 178.539L485.363 178.536L485.124 177.565ZM502.284 177.5L502.057 178.474L502.064 178.476L502.072 178.477L502.284 177.5ZM509.174 179.97L508.696 180.849L508.704 180.853L508.711 180.857L509.174 179.97ZM514.179 183.61L514.978 184.211L515.492 183.528L514.897 182.914L514.179 183.61ZM509.044 190.435L508.375 191.178L509.186 191.909L509.843 191.036L509.044 190.435ZM504.494 187.51L504.056 188.409L504.07 188.416L504.083 188.422L504.494 187.51ZM499.099 185.625L499.32 184.65L499.32 184.65L499.099 185.625ZM487.724 185.56L487.93 186.539L487.942 186.536L487.954 186.533L487.724 185.56ZM483.824 187.185L484.435 187.976L484.435 187.976L483.824 187.185ZM483.434 192.45L482.75 193.18L482.761 193.19L482.772 193.2L483.434 192.45ZM486.359 194.01L486.053 194.962L486.062 194.965L486.359 194.01ZM490.519 194.985L490.35 195.971L490.366 195.973L490.381 195.975L490.519 194.985ZM495.264 195.635L495.13 196.626L495.147 196.628L495.164 196.63L495.264 195.635ZM502.869 196.675L502.696 197.66L502.699 197.66L502.869 196.675ZM509.564 198.625L509.158 199.539L509.165 199.542L509.564 198.625ZM514.309 202.33L513.501 202.919L513.51 202.932L513.52 202.944L514.309 202.33ZM513.269 216.63L514.032 217.276L514.032 217.276L513.269 216.63ZM505.404 221.83L505.062 220.89L505.058 220.892L505.404 221.83ZM493.899 223.65V222.65C490.45 222.65 487.272 222.331 484.361 221.698L484.149 222.675L483.936 223.652C487.006 224.319 490.328 224.65 493.899 224.65V223.65ZM484.149 222.675L484.364 221.698C481.489 221.064 478.881 220.158 476.536 218.986L476.089 219.88L475.642 220.774C478.15 222.028 480.915 222.986 483.933 223.652L484.149 222.675ZM476.089 219.88L476.536 218.986C474.174 217.804 472.028 216.415 470.096 214.819L469.459 215.59L468.822 216.361C470.876 218.058 473.151 219.529 475.642 220.774L476.089 219.88ZM469.459 215.59L470.312 216.112L475.122 208.247L474.269 207.725L473.416 207.203L468.606 215.068L469.459 215.59ZM474.269 207.725L473.648 208.509C477.054 211.207 480.507 213.195 484.006 214.451L484.344 213.51L484.682 212.569C481.421 211.398 478.157 209.529 474.89 206.941L474.269 207.725ZM484.344 213.51L484.006 214.451C487.488 215.701 490.982 216.33 494.484 216.33V215.33V214.33C491.226 214.33 487.96 213.746 484.682 212.569L484.344 213.51ZM494.484 215.33V216.33C496.284 216.33 498.063 216.15 499.82 215.79L499.619 214.81L499.418 213.83C497.794 214.163 496.15 214.33 494.484 214.33V215.33ZM499.619 214.81L499.838 215.786C501.67 215.373 503.236 214.72 504.499 213.797L503.909 212.99L503.319 212.183C502.329 212.906 501.034 213.467 499.399 213.834L499.619 214.81ZM503.909 212.99L504.484 213.808C505.92 212.797 506.664 211.366 506.664 209.61H505.664H504.664C504.664 210.714 504.237 211.536 503.333 212.172L503.909 212.99ZM505.664 209.61H506.664C506.664 208.504 506.293 207.53 505.497 206.795L504.819 207.53L504.141 208.265C504.471 208.57 504.664 208.982 504.664 209.61H505.664ZM504.819 207.53L505.526 206.823C504.827 206.124 503.902 205.601 502.807 205.221L502.479 206.165L502.15 207.109C503.049 207.422 503.684 207.809 504.112 208.237L504.819 207.53ZM502.479 206.165L502.821 205.225C501.799 204.854 500.635 204.559 499.334 204.335L499.164 205.32L498.994 206.305C500.206 206.514 501.252 206.783 502.137 207.105L502.479 206.165ZM499.164 205.32L499.34 204.336C498.1 204.114 496.817 203.937 495.493 203.805L495.394 204.8L495.294 205.795C496.57 205.923 497.801 206.093 498.988 206.304L499.164 205.32ZM495.394 204.8L495.493 203.805C494.185 203.674 492.919 203.565 491.695 203.478L491.624 204.475L491.553 205.472C492.756 205.558 494.003 205.666 495.294 205.795L495.394 204.8ZM491.624 204.475L491.739 203.482C488.793 203.14 486.139 202.629 483.774 201.953L483.499 202.915L483.224 203.877C485.712 204.587 488.475 205.117 491.509 205.468L491.624 204.475ZM483.499 202.915L483.774 201.953C481.417 201.28 479.427 200.426 477.789 199.402L477.259 200.25L476.729 201.098C478.558 202.241 480.728 203.163 483.224 203.877L483.499 202.915ZM477.259 200.25L477.789 199.402C476.175 198.393 474.976 197.184 474.158 195.781L473.294 196.285L472.43 196.789C473.432 198.506 474.876 199.94 476.729 201.098L477.259 200.25ZM473.294 196.285L474.164 195.791C473.348 194.354 472.929 192.707 472.929 190.825H471.929H470.929C470.929 193.016 471.42 195.009 472.424 196.779L473.294 196.285ZM471.929 190.825H472.929C472.929 188.74 473.428 186.908 474.408 185.301L473.554 184.78L472.7 184.259C471.513 186.206 470.929 188.404 470.929 190.825H471.929ZM473.554 184.78L474.398 185.316C475.434 183.682 476.877 182.291 478.754 181.149L478.234 180.295L477.714 179.441C475.604 180.725 473.927 182.324 472.709 184.244L473.554 184.78ZM478.234 180.295L478.754 181.149C480.645 179.998 482.84 179.125 485.351 178.539L485.124 177.565L484.897 176.591C482.208 177.219 479.81 178.165 477.714 179.441L478.234 180.295ZM485.124 177.565L485.363 178.536C487.92 177.907 490.677 177.59 493.639 177.59V176.59V175.59C490.534 175.59 487.615 175.923 484.885 176.594L485.124 177.565ZM493.639 176.59V177.59C496.739 177.59 499.543 177.887 502.057 178.474L502.284 177.5L502.511 176.526C499.824 175.899 496.865 175.59 493.639 175.59V176.59ZM502.284 177.5L502.072 178.477C504.595 179.024 506.799 179.818 508.696 180.849L509.174 179.97L509.651 179.091C507.562 177.956 505.173 177.103 502.496 176.523L502.284 177.5ZM509.174 179.97L508.711 180.857C510.625 181.855 512.203 183.007 513.461 184.306L514.179 183.61L514.897 182.914C513.468 181.439 511.709 180.165 509.636 179.083L509.174 179.97ZM514.179 183.61L513.38 183.009L508.245 189.834L509.044 190.435L509.843 191.036L514.978 184.211L514.179 183.61ZM509.044 190.435L509.713 189.692C508.329 188.447 506.724 187.417 504.904 186.598L504.494 187.51L504.083 188.422C505.731 189.163 507.158 190.083 508.375 191.178L509.044 190.435ZM504.494 187.51L504.932 186.611C503.17 185.753 501.299 185.1 499.32 184.65L499.099 185.625L498.877 186.6C500.712 187.017 502.438 187.621 504.056 188.409L504.494 187.51ZM499.099 185.625L499.32 184.65C497.34 184.2 495.315 183.975 493.249 183.975V184.975V185.975C495.169 185.975 497.045 186.184 498.877 186.6L499.099 185.625ZM493.249 184.975V183.975C491.15 183.975 489.229 184.176 487.493 184.587L487.724 185.56L487.954 186.533C489.512 186.164 491.275 185.975 493.249 185.975V184.975ZM487.724 185.56L487.518 184.581C485.779 184.948 484.323 185.536 483.212 186.394L483.824 187.185L484.435 187.976C485.232 187.361 486.376 186.866 487.93 186.539L487.724 185.56ZM483.824 187.185L483.212 186.394C482.034 187.305 481.394 188.52 481.394 189.98H482.394H483.394C483.394 189.187 483.707 188.539 484.435 187.976L483.824 187.185ZM482.394 189.98H481.394C481.394 191.238 481.844 192.33 482.75 193.18L483.434 192.45L484.118 191.72C483.637 191.27 483.394 190.715 483.394 189.98H482.394ZM483.434 192.45L482.772 193.2C483.638 193.964 484.746 194.542 486.053 194.962L486.359 194.01L486.665 193.058C485.545 192.698 484.703 192.236 484.095 191.7L483.434 192.45ZM486.359 194.01L486.062 194.965C487.367 195.37 488.797 195.704 490.35 195.971L490.519 194.985L490.688 193.999C489.207 193.746 487.864 193.43 486.655 193.055L486.359 194.01ZM490.519 194.985L490.381 195.975C491.943 196.192 493.525 196.409 495.13 196.626L495.264 195.635L495.398 194.644C493.796 194.427 492.215 194.211 490.656 193.995L490.519 194.985ZM495.264 195.635L495.164 196.63C497.741 196.888 500.251 197.231 502.696 197.66L502.869 196.675L503.042 195.69C500.546 195.252 497.987 194.902 495.363 194.64L495.264 195.635ZM502.869 196.675L502.699 197.66C505.146 198.082 507.296 198.711 509.158 199.539L509.564 198.625L509.97 197.711C507.932 196.805 505.618 196.134 503.039 195.69L502.869 196.675ZM509.564 198.625L509.165 199.542C511.011 200.345 512.446 201.473 513.501 202.919L514.309 202.33L515.117 201.741C513.832 199.98 512.103 198.639 509.963 197.708L509.564 198.625ZM514.309 202.33L513.52 202.944C514.559 204.28 515.129 206.122 515.129 208.57H516.129H517.129C517.129 205.818 516.486 203.5 515.098 201.716L514.309 202.33ZM516.129 208.57H515.129C515.129 211.468 514.25 213.922 512.505 215.984L513.269 216.63L514.032 217.276C516.101 214.831 517.129 211.912 517.129 208.57H516.129ZM513.269 216.63L512.505 215.984C510.732 218.08 508.268 219.724 505.062 220.89L505.404 221.83L505.746 222.77C509.213 221.509 511.992 219.687 514.032 217.276L513.269 216.63ZM505.404 221.83L505.058 220.892C501.899 222.056 498.186 222.65 493.899 222.65V223.65V224.65C498.365 224.65 502.322 224.031 505.75 222.768L505.404 221.83Z" fill="#03624C" mask="url(#path-3-outside-1_961_47)"/>
</svg>
